<?xml version="1.0" standalone="no"?>
<!DOCTYPE svg PUBLIC "-//W3C//DTD SVG 20010904//EN"
 "http://www.w3.org/TR/2001/REC-SVG-20010904/DTD/svg10.dtd">
<svg version="1.0" xmlns="http://www.w3.org/2000/svg"
 width="650.000000pt" height="125.000000pt" viewBox="0 0 650.000000 125.000000"
 preserveAspectRatio="xMidYMid meet">

<g transform="translate(0.000000,125.000000) scale(0.100000,-0.100000)"
fill="#000000" stroke="none">
<path d="M259 1240 c-97 -17 -182 -84 -228 -180 l-26 -55 0 -380 0 -380 26
-55 c33 -70 89 -126 159 -159 l55 -26 380 0 380 0 55 26 c70 33 126 89 159
159 l26 55 0 380 0 380 -26 55 c-33 70 -89 126 -159 159 l-55 26 -350 2 c-192
1 -371 -2 -396 -7z m449 -224 c81 -74 99 -192 45 -288 -17 -30 -48 -66 -71
-82 l-42 -30 -42 31 c-61 43 -98 118 -98 194 0 93 38 162 114 210 33 20 34 19
94 -35z m-313 -421 c116 -56 186 -195 169 -333 -8 -65 -24 -76 -114 -76 -163
0 -293 137 -294 309 -1 96 8 123 42 128 59 11 143 -1 197 -28z m686 13 c15
-24 20 -107 10 -161 -20 -107 -88 -199 -180 -240 -52 -23 -162 -29 -197 -9
-49 26 -37 189 20 284 61 101 160 153 275 144 36 -3 68 -11 72 -18z"/>
</g>
</svg>
